<svg width="130" height="34" viewBox="0 0 130 34" fill="none" xmlns="http://www.w3.org/2000/svg">
<path d="M4.784 21.208C6.336 21.208 7.696 20.408 8.384 19.128L6.896 18.28C6.512 19.032 5.712 19.512 4.768 19.512C4.064 19.512 3.472 19.272 2.992 18.792C2.528 18.312 2.288 17.72 2.288 17C2.288 16.28 2.528 15.688 2.992 15.208C3.472 14.728 4.064 14.488 4.768 14.488C5.728 14.488 6.496 14.952 6.864 15.72L8.352 14.856C7.712 13.592 6.336 12.792 4.784 12.792C3.584 12.792 2.576 13.192 1.76 14.008C0.96 14.808 0.56 15.8 0.56 17C0.56 18.184 0.96 19.176 1.76 19.992C2.576 20.808 3.584 21.208 4.784 21.208ZM14.484 21.208C15.668 21.208 16.66 20.808 17.476 19.992C18.292 19.176 18.708 18.184 18.708 17C18.708 15.816 18.292 14.824 17.476 14.008C16.66 13.192 15.668 12.792 14.484 12.792C13.316 12.792 12.308 13.192 11.492 14.008C10.676 14.824 10.26 15.816 10.26 17C10.26 18.184 10.676 19.176 11.492 19.992C12.308 20.808 13.316 21.208 14.484 21.208ZM12.708 18.808C12.228 18.328 11.988 17.72 11.988 17C11.988 16.28 12.228 15.672 12.708 15.192C13.188 14.712 13.78 14.472 14.484 14.472C15.188 14.472 15.78 14.712 16.26 15.192C16.74 15.672 16.98 16.28 16.98 17C16.98 17.72 16.74 18.328 16.26 18.808C15.78 19.288 15.188 19.528 14.484 19.528C13.78 19.528 13.188 19.288 12.708 18.808ZM30.2065 12.792C29.1025 12.792 28.2865 13.208 27.7585 14.056C27.2625 13.208 26.5105 12.792 25.4865 12.792C24.4785 12.792 23.7105 13.176 23.1985 13.96V13H21.4705V21H23.1985V16.52C23.1985 15.128 23.9345 14.408 24.9745 14.408C25.9345 14.408 26.4785 15.048 26.4785 16.152V21H28.2065V16.52C28.2065 15.112 28.8785 14.408 29.9505 14.408C30.9105 14.408 31.5025 15.048 31.5025 16.152V21H33.2305V16.04C33.2305 14.056 32.0145 12.792 30.2065 12.792ZM40.8079 12.792C39.5919 12.792 38.6639 13.24 38.0079 14.152V13H36.2799V24.2H38.0079V19.864C38.6639 20.76 39.5919 21.208 40.8079 21.208C41.9119 21.208 42.8399 20.808 43.6239 19.992C44.4079 19.176 44.7919 18.184 44.7919 17C44.7919 15.832 44.4079 14.84 43.6239 14.024C42.8399 13.208 41.9119 12.792 40.8079 12.792ZM38.7279 18.84C38.2479 18.344 38.0079 17.736 38.0079 17C38.0079 16.264 38.2479 15.656 38.7279 15.176C39.2079 14.68 39.8159 14.44 40.5359 14.44C41.2559 14.44 41.8639 14.68 42.3439 15.176C42.8239 15.656 43.0639 16.264 43.0639 17C43.0639 17.736 42.8239 18.344 42.3439 18.84C41.8639 19.32 41.2559 19.56 40.5359 19.56C39.8159 19.56 39.2079 19.32 38.7279 18.84ZM53.894 14.136C53.238 13.24 52.31 12.792 51.094 12.792C49.99 12.792 49.062 13.192 48.278 14.008C47.494 14.824 47.11 15.816 47.11 17C47.11 18.168 47.494 19.176 48.278 19.992C49.062 20.808 49.99 21.208 51.094 21.208C52.31 21.208 53.238 20.76 53.894 19.848V21H55.622V13H53.894V14.136ZM49.558 18.84C49.078 18.344 48.838 17.736 48.838 17C48.838 16.264 49.078 15.656 49.558 15.176C50.038 14.68 50.646 14.44 51.366 14.44C52.086 14.44 52.694 14.68 53.174 15.176C53.654 15.656 53.894 16.264 53.894 17C53.894 17.736 53.654 18.344 53.174 18.84C52.694 19.32 52.086 19.56 51.366 19.56C50.646 19.56 50.038 19.32 49.558 18.84ZM63.0441 12.792C61.9081 12.792 61.0921 13.208 60.5641 14.024V13H58.8361V21H60.5641V16.712C60.5641 15.16 61.3801 14.408 62.5961 14.408C63.7001 14.408 64.3881 15.064 64.3881 16.264V21H66.1161V16.088C66.1161 14.04 64.8841 12.792 63.0441 12.792ZM72.3645 18.808L69.9805 13H68.0925L71.4845 20.856L71.4045 21.016C70.9725 22.12 70.3645 22.648 69.2765 22.584V24.2C71.1165 24.312 72.4125 23.32 73.1805 21.256L76.2525 13H74.4125L72.3645 18.808ZM85.461 21V9.32H83.733V21H85.461ZM92.4434 21.208C93.6274 21.208 94.6194 20.808 95.4354 19.992C96.2514 19.176 96.6674 18.184 96.6674 17C96.6674 15.816 96.2514 14.824 95.4354 14.008C94.6194 13.192 93.6274 12.792 92.4434 12.792C91.2754 12.792 90.2674 13.192 89.4514 14.008C88.6354 14.824 88.2194 15.816 88.2194 17C88.2194 18.184 88.6354 19.176 89.4514 19.992C90.2674 20.808 91.2754 21.208 92.4434 21.208ZM90.6674 18.808C90.1874 18.328 89.9474 17.72 89.9474 17C89.9474 16.28 90.1874 15.672 90.6674 15.192C91.1474 14.712 91.7394 14.472 92.4434 14.472C93.1474 14.472 93.7394 14.712 94.2194 15.192C94.6994 15.672 94.9394 16.28 94.9394 17C94.9394 17.72 94.6994 18.328 94.2194 18.808C93.7394 19.288 93.1474 19.528 92.4434 19.528C91.7394 19.528 91.1474 19.288 90.6674 18.808ZM105.798 14.184C105.142 13.256 104.214 12.792 103.014 12.792C101.878 12.792 100.934 13.192 100.15 14.008C99.3659 14.808 98.9819 15.784 98.9819 16.92C98.9819 18.056 99.3659 19.032 100.15 19.848C100.934 20.648 101.878 21.048 103.014 21.048C104.214 21.048 105.142 20.584 105.798 19.656V20.632C105.798 22.024 104.902 22.84 103.414 22.84C102.278 22.84 101.494 22.424 101.078 21.608L99.5899 22.472C100.278 23.768 101.542 24.408 103.382 24.408C104.518 24.408 105.494 24.088 106.294 23.432C107.094 22.776 107.494 21.848 107.494 20.632V13H105.798V14.184ZM101.43 18.712C100.95 18.232 100.71 17.64 100.71 16.92C100.71 16.2 100.95 15.608 101.43 15.128C101.926 14.648 102.534 14.408 103.254 14.408C103.974 14.408 104.582 14.648 105.062 15.128C105.558 15.608 105.798 16.2 105.798 16.92C105.798 17.64 105.558 18.232 105.062 18.712C104.582 19.192 103.974 19.432 103.254 19.432C102.534 19.432 101.926 19.192 101.43 18.712ZM114.484 21.208C115.668 21.208 116.66 20.808 117.476 19.992C118.292 19.176 118.708 18.184 118.708 17C118.708 15.816 118.292 14.824 117.476 14.008C116.66 13.192 115.668 12.792 114.484 12.792C113.316 12.792 112.308 13.192 111.492 14.008C110.676 14.824 110.26 15.816 110.26 17C110.26 18.184 110.676 19.176 111.492 19.992C112.308 20.808 113.316 21.208 114.484 21.208ZM112.708 18.808C112.228 18.328 111.988 17.72 111.988 17C111.988 16.28 112.228 15.672 112.708 15.192C113.188 14.712 113.78 14.472 114.484 14.472C115.188 14.472 115.78 14.712 116.26 15.192C116.74 15.672 116.98 16.28 116.98 17C116.98 17.72 116.74 18.328 116.26 18.808C115.78 19.288 115.188 19.528 114.484 19.528C113.78 19.528 113.188 19.288 112.708 18.808Z" fill="#E04E39"/>
</svg>
