<svg width="238" height="60" viewBox="0 0 238 60" fill="none" xmlns="http://www.w3.org/2000/svg">
<path d="M40.98 35.26C42.92 35.26 44.62 34.26 45.48 32.66L43.62 31.6C43.14 32.54 42.14 33.14 40.96 33.14C40.08 33.14 39.34 32.84 38.74 32.24C38.16 31.64 37.86 30.9 37.86 30C37.86 29.1 38.16 28.36 38.74 27.76C39.34 27.16 40.08 26.86 40.96 26.86C42.16 26.86 43.12 27.44 43.58 28.4L45.44 27.32C44.64 25.74 42.92 24.74 40.98 24.74C39.48 24.74 38.22 25.24 37.2 26.26C36.2 27.26 35.7 28.5 35.7 30C35.7 31.48 36.2 32.72 37.2 33.74C38.22 34.76 39.48 35.26 40.98 35.26ZM54.805 35.26C56.285 35.26 57.525 34.76 58.545 33.74C59.565 32.72 60.085 31.48 60.085 30C60.085 28.52 59.565 27.28 58.545 26.26C57.525 25.24 56.285 24.74 54.805 24.74C53.345 24.74 52.085 25.24 51.065 26.26C50.045 27.28 49.525 28.52 49.525 30C49.525 31.48 50.045 32.72 51.065 33.74C52.085 34.76 53.345 35.26 54.805 35.26ZM52.585 32.26C51.985 31.66 51.685 30.9 51.685 30C51.685 29.1 51.985 28.34 52.585 27.74C53.185 27.14 53.925 26.84 54.805 26.84C55.685 26.84 56.425 27.14 57.025 27.74C57.625 28.34 57.925 29.1 57.925 30C57.925 30.9 57.625 31.66 57.025 32.26C56.425 32.86 55.685 33.16 54.805 33.16C53.925 33.16 53.185 32.86 52.585 32.26ZM76.1581 24.74C74.7781 24.74 73.7581 25.26 73.0981 26.32C72.4781 25.26 71.5381 24.74 70.2581 24.74C68.9981 24.74 68.0381 25.22 67.3981 26.2V25H65.2381V35H67.3981V29.4C67.3981 27.66 68.3181 26.76 69.6181 26.76C70.8181 26.76 71.4981 27.56 71.4981 28.94V35H73.6581V29.4C73.6581 27.64 74.4981 26.76 75.8381 26.76C77.0381 26.76 77.7781 27.56 77.7781 28.94V35H79.9381V28.8C79.9381 26.32 78.4181 24.74 76.1581 24.74ZM91.1098 24.74C89.5898 24.74 88.4298 25.3 87.6098 26.44V25H85.4498V39H87.6098V33.58C88.4298 34.7 89.5898 35.26 91.1098 35.26C92.4898 35.26 93.6498 34.76 94.6298 33.74C95.6098 32.72 96.0898 31.48 96.0898 30C96.0898 28.54 95.6098 27.3 94.6298 26.28C93.6498 25.26 92.4898 24.74 91.1098 24.74ZM88.5098 32.3C87.9098 31.68 87.6098 30.92 87.6098 30C87.6098 29.08 87.9098 28.32 88.5098 27.72C89.1098 27.1 89.8698 26.8 90.7698 26.8C91.6698 26.8 92.4298 27.1 93.0298 27.72C93.6298 28.32 93.9298 29.08 93.9298 30C93.9298 30.92 93.6298 31.68 93.0298 32.3C92.4298 32.9 91.6698 33.2 90.7698 33.2C89.8698 33.2 89.1098 32.9 88.5098 32.3ZM109.168 26.42C108.348 25.3 107.188 24.74 105.668 24.74C104.288 24.74 103.128 25.24 102.148 26.26C101.168 27.28 100.688 28.52 100.688 30C100.688 31.46 101.168 32.72 102.148 33.74C103.128 34.76 104.288 35.26 105.668 35.26C107.188 35.26 108.348 34.7 109.168 33.56V35H111.328V25H109.168V26.42ZM103.748 32.3C103.148 31.68 102.848 30.92 102.848 30C102.848 29.08 103.148 28.32 103.748 27.72C104.348 27.1 105.108 26.8 106.008 26.8C106.908 26.8 107.668 27.1 108.268 27.72C108.868 28.32 109.168 29.08 109.168 30C109.168 30.92 108.868 31.68 108.268 32.3C107.668 32.9 106.908 33.2 106.008 33.2C105.108 33.2 104.348 32.9 103.748 32.3ZM122.305 24.74C120.885 24.74 119.865 25.26 119.205 26.28V25H117.045V35H119.205V29.64C119.205 27.7 120.225 26.76 121.745 26.76C123.125 26.76 123.985 27.58 123.985 29.08V35H126.145V28.86C126.145 26.3 124.605 24.74 122.305 24.74ZM135.656 32.26L132.676 25H130.316L134.556 34.82L134.456 35.02C133.916 36.4 133.156 37.06 131.796 36.98V39C134.096 39.14 135.716 37.9 136.676 35.32L140.516 25H138.216L135.656 32.26ZM155.426 35V20.4H153.266V35H155.426ZM165.854 35.26C167.334 35.26 168.574 34.76 169.594 33.74C170.614 32.72 171.134 31.48 171.134 30C171.134 28.52 170.614 27.28 169.594 26.26C168.574 25.24 167.334 24.74 165.854 24.74C164.394 24.74 163.134 25.24 162.114 26.26C161.094 27.28 160.574 28.52 160.574 30C160.574 31.48 161.094 32.72 162.114 33.74C163.134 34.76 164.394 35.26 165.854 35.26ZM163.634 32.26C163.034 31.66 162.734 30.9 162.734 30C162.734 29.1 163.034 28.34 163.634 27.74C164.234 27.14 164.974 26.84 165.854 26.84C166.734 26.84 167.474 27.14 168.074 27.74C168.674 28.34 168.974 29.1 168.974 30C168.974 30.9 168.674 31.66 168.074 32.26C167.474 32.86 166.734 33.16 165.854 33.16C164.974 33.16 164.234 32.86 163.634 32.26ZM184.247 26.48C183.427 25.32 182.267 24.74 180.767 24.74C179.347 24.74 178.167 25.24 177.187 26.26C176.207 27.26 175.727 28.48 175.727 29.9C175.727 31.32 176.207 32.54 177.187 33.56C178.167 34.56 179.347 35.06 180.767 35.06C182.267 35.06 183.427 34.48 184.247 33.32V34.54C184.247 36.28 183.127 37.3 181.267 37.3C179.847 37.3 178.867 36.78 178.347 35.76L176.487 36.84C177.347 38.46 178.927 39.26 181.227 39.26C182.647 39.26 183.867 38.86 184.867 38.04C185.867 37.22 186.367 36.06 186.367 34.54V25H184.247V26.48ZM178.787 32.14C178.187 31.54 177.887 30.8 177.887 29.9C177.887 29 178.187 28.26 178.787 27.66C179.407 27.06 180.167 26.76 181.067 26.76C181.967 26.76 182.727 27.06 183.327 27.66C183.947 28.26 184.247 29 184.247 29.9C184.247 30.8 183.947 31.54 183.327 32.14C182.727 32.74 181.967 33.04 181.067 33.04C180.167 33.04 179.407 32.74 178.787 32.14ZM196.805 35.26C198.285 35.26 199.525 34.76 200.545 33.74C201.565 32.72 202.085 31.48 202.085 30C202.085 28.52 201.565 27.28 200.545 26.26C199.525 25.24 198.285 24.74 196.805 24.74C195.345 24.74 194.085 25.24 193.065 26.26C192.045 27.28 191.525 28.52 191.525 30C191.525 31.48 192.045 32.72 193.065 33.74C194.085 34.76 195.345 35.26 196.805 35.26ZM194.585 32.26C193.985 31.66 193.685 30.9 193.685 30C193.685 29.1 193.985 28.34 194.585 27.74C195.185 27.14 195.925 26.84 196.805 26.84C197.685 26.84 198.425 27.14 199.025 27.74C199.625 28.34 199.925 29.1 199.925 30C199.925 30.9 199.625 31.66 199.025 32.26C198.425 32.86 197.685 33.16 196.805 33.16C195.925 33.16 195.185 32.86 194.585 32.26Z" fill="#E04E39"/>
</svg>
