<svg width="24" height="24" viewBox="0 0 24 24" fill="none" xmlns="http://www.w3.org/2000/svg">
<path d="M20.3332 16.0999V18.5999C20.3342 18.832 20.2866 19.0617 20.1936 19.2744C20.1007 19.487 19.9643 19.6779 19.7933 19.8348C19.6223 19.9917 19.4204 20.1112 19.2005 20.1855C18.9807 20.2599 18.7477 20.2875 18.5166 20.2666C15.9522 19.988 13.4891 19.1117 11.3249 17.7083C9.31139 16.4288 7.60431 14.7217 6.32487 12.7083C4.91651 10.5343 4.04007 8.05908 3.76653 5.48325C3.7457 5.25281 3.77309 5.02055 3.84695 4.80127C3.9208 4.58199 4.03951 4.38049 4.1955 4.2096C4.3515 4.03871 4.54137 3.90218 4.75302 3.80869C4.96468 3.7152 5.19348 3.6668 5.42487 3.66658H7.92486C8.32929 3.6626 8.72136 3.80582 9.028 4.06953C9.33464 4.33324 9.53493 4.69946 9.59153 5.09992C9.69705 5.89997 9.89274 6.68552 10.1749 7.44158C10.287 7.73985 10.3112 8.06401 10.2448 8.37565C10.1783 8.68729 10.0239 8.97334 9.79986 9.19992L8.74153 10.2582C9.92783 12.3445 11.6552 14.072 13.7416 15.2583L14.7999 14.1999C15.0265 13.9759 15.3125 13.8215 15.6242 13.755C15.9358 13.6885 16.2599 13.7128 16.5582 13.8249C17.3143 14.107 18.0998 14.3027 18.8999 14.4083C19.3047 14.4654 19.6744 14.6693 19.9387 14.9812C20.2029 15.2931 20.3434 15.6912 20.3332 16.0999Z" fill="#E04E39"/>
</svg>
