<svg width="24" height="24" viewBox="0 0 24 24" fill="none" xmlns="http://www.w3.org/2000/svg">
<circle cx="12" cy="12" r="12" fill="#E04E39"/>
<path d="M18 8C18.5523 8 19 7.55228 19 7C19 6.44772 18.5523 6 18 6C17.4477 6 17 6.44772 17 7C17 7.55228 17.4477 8 18 8Z" fill="white"/>
<path d="M14.7805 8H6V18H8.4439V14.7466H13.1268L15.2634 18H18L15.6439 14.7316C16.3756 14.6117 16.9024 14.3268 17.2244 13.8771C17.5463 13.4273 17.7073 12.7076 17.7073 11.7481V10.9985C17.7073 10.4288 17.6488 9.97901 17.5463 9.63417C17.4439 9.28937 17.2683 8.98948 17.0195 8.71963C16.7561 8.46477 16.4634 8.28485 16.1122 8.16492C15.7609 8.05995 15.3219 8 14.7805 8ZM14.3854 12.5427H8.4439V10.2039H14.3854C14.7219 10.2039 14.9561 10.2639 15.0732 10.3688C15.1902 10.4738 15.2634 10.6687 15.2634 10.9535V11.7931C15.2634 12.0929 15.1902 12.2879 15.0732 12.3928C14.9561 12.4978 14.7219 12.5427 14.3854 12.5427Z" fill="white"/>
</svg>
