<svg width="24" height="24" viewBox="0 0 24 24" fill="none" xmlns="http://www.w3.org/2000/svg">
<g clip-path="url(#clip0_27_989)">
<path d="M12 0C5.37265 0 0 5.37265 0 12C0 18.6274 5.37265 24 12 24C18.6274 24 24 18.6274 24 12C24 5.37265 18.6274 0 12 0ZM18.7502 5.5773L16.0634 18.1954C16.0131 18.4431 15.7308 18.5646 15.5164 18.4302L11.3846 15.6899L9.21123 17.7124C9.01777 17.8778 8.7182 17.7973 8.634 17.5569L7.21893 13.0939L3.41905 11.5354C3.12751 11.4026 3.13165 10.9383 3.43048 10.8222L18.264 5.16751C18.5312 5.06384 18.8072 5.29648 18.7502 5.5773Z" fill="#E04E39"/>
<path d="M9.0905 16.2333L9.3319 13.939L16.0332 7.38859L7.94336 12.7014L9.0905 16.2333Z" fill="#E04E39"/>
<path fill-rule="evenodd" clip-rule="evenodd" d="M18.7503 5.57727L16.0635 18.1954C16.0131 18.4431 15.7308 18.5645 15.5164 18.4302L11.3846 15.6899L9.21126 17.7123C9.01779 17.8778 8.71823 17.7973 8.63403 17.5568L7.21896 13.0938L3.41908 11.5354C3.12754 11.4026 3.13168 10.9382 3.43051 10.8222L18.2641 5.16748C18.5313 5.06381 18.8072 5.29645 18.7503 5.57727ZM9.33193 13.939L9.09053 16.2333L7.94339 12.7013L16.0333 7.38856L9.33193 13.939Z" fill="white"/>
</g>
<defs>
<clipPath id="clip0_27_989">
<rect width="24" height="24" fill="white"/>
</clipPath>
</defs>
</svg>
