<svg width="24" height="24" viewBox="0 0 24 24" fill="none" xmlns="http://www.w3.org/2000/svg">
<g clip-path="url(#clip0_27_988)">
<path d="M12 0C5.37265 0 0 5.37265 0 12C0 18.6274 5.37265 24 12 24C18.6274 24 24 18.6274 24 12C24 5.37265 18.6274 0 12 0ZM17.2038 13.5861C17.2982 13.703 17.5228 13.9305 17.8781 14.2692H17.8864L17.8946 14.2773L17.9029 14.2858L17.9197 14.3023C18.7023 15.0294 19.2323 15.6429 19.51 16.1425C19.5268 16.17 19.5448 16.2051 19.5642 16.2467C19.5835 16.2883 19.6029 16.3618 19.6224 16.4671C19.6416 16.573 19.6402 16.6669 19.6183 16.7502C19.5961 16.8331 19.5268 16.91 19.4102 16.9792C19.2936 17.0488 19.1299 17.0833 18.9189 17.0833L16.7874 17.1169C16.6543 17.1446 16.4988 17.1308 16.3211 17.0753C16.1433 17.0195 15.9992 16.9585 15.8882 16.892L15.7215 16.7918C15.5548 16.6752 15.3606 16.4976 15.1387 16.2591C14.9165 16.0204 14.7265 15.8052 14.5683 15.6137C14.4101 15.4222 14.2408 15.2616 14.0602 15.1307C13.8796 15.0002 13.7229 14.9572 13.5898 15.0017C13.5732 15.0075 13.5509 15.0173 13.5231 15.0309C13.4951 15.0448 13.4482 15.0847 13.3815 15.1516C13.3148 15.2183 13.2552 15.3003 13.2024 15.3971C13.1496 15.4945 13.1024 15.6388 13.0608 15.8303C13.0191 16.0216 13.0009 16.2369 13.0067 16.4757C13.0067 16.5586 12.9968 16.6353 12.9775 16.7047C12.9581 16.774 12.9371 16.8254 12.915 16.8585L12.8817 16.9001C12.7816 17.0059 12.6347 17.0668 12.4405 17.0833H11.4829C11.0887 17.1057 10.6835 17.0599 10.2674 16.9461C9.85123 16.8319 9.48597 16.6852 9.17253 16.5046C8.85861 16.3245 8.57292 16.1413 8.31497 15.9554C8.05678 15.7692 7.86113 15.6098 7.72802 15.4767L7.51995 15.2767C7.46447 15.2214 7.38806 15.138 7.29096 15.0268C7.19387 14.9158 6.99554 14.6635 6.69573 14.2692C6.39593 13.875 6.10172 13.4562 5.81311 13.0118C5.5245 12.5677 5.18454 11.982 4.79299 11.2549C4.40169 10.528 4.03959 9.77312 3.70644 8.99027C3.6731 8.90169 3.65631 8.82674 3.65631 8.76566C3.65631 8.70482 3.66458 8.66029 3.68138 8.6323L3.71471 8.58241C3.79794 8.4768 3.95612 8.424 4.18924 8.424L6.47064 8.40745C6.53731 8.41864 6.60107 8.43665 6.66215 8.46171C6.72323 8.48654 6.76776 8.51014 6.79551 8.53228L6.83712 8.55735C6.92594 8.61867 6.99238 8.70725 7.03691 8.82382C7.14788 9.10172 7.27563 9.38887 7.41994 9.68576C7.56424 9.98264 7.67813 10.209 7.76136 10.3642L7.89447 10.6059C8.05532 10.9388 8.21082 11.2276 8.36072 11.4717C8.51087 11.716 8.6452 11.9063 8.76468 12.0421C8.88392 12.1781 8.99903 12.2852 9.11024 12.3626C9.2212 12.4405 9.31562 12.4794 9.3935 12.4794C9.47112 12.4794 9.54607 12.4655 9.61835 12.4378C9.6293 12.4322 9.64317 12.4183 9.65996 12.3962C9.67675 12.374 9.70985 12.3129 9.75998 12.2127C9.80986 12.1129 9.84734 11.9825 9.8724 11.8214C9.89747 11.6608 9.92375 11.4359 9.95149 11.1473C9.97923 10.8585 9.97923 10.5117 9.95149 10.1065C9.9403 9.88433 9.91523 9.68186 9.87654 9.49862C9.83761 9.31562 9.79867 9.18787 9.75998 9.11559L9.70985 9.01582C9.57114 8.82722 9.33533 8.70774 9.00219 8.65761C8.92992 8.6469 8.94379 8.58022 9.0438 8.45806C9.13822 8.35245 9.24359 8.26947 9.36016 8.20814C9.65436 8.06408 10.3177 7.99741 11.3503 8.00811C11.8053 8.01395 12.1801 8.04972 12.4743 8.1164C12.5853 8.14439 12.6782 8.18162 12.7532 8.22883C12.8281 8.27579 12.8851 8.34272 12.924 8.42837C12.9627 8.51452 12.9919 8.60334 13.0114 8.69484C13.0308 8.78658 13.0406 8.91312 13.0406 9.07373C13.0406 9.23483 13.0379 9.38765 13.0323 9.53172C13.0267 9.67602 13.0199 9.87192 13.0116 10.1187C13.0033 10.3657 12.9989 10.5949 12.9989 10.8056C12.9989 10.867 12.9963 10.9833 12.9907 11.1553C12.9851 11.3276 12.9834 11.4607 12.9865 11.5549C12.9892 11.6493 12.9989 11.762 13.0155 11.8922C13.0323 12.0226 13.0642 12.1312 13.1114 12.2168C13.1583 12.303 13.2209 12.3709 13.2987 12.4208C13.343 12.4322 13.3903 12.4431 13.4404 12.4543C13.4903 12.4653 13.5623 12.4351 13.6567 12.3626C13.7509 12.2906 13.8565 12.1947 13.9731 12.0754C14.0896 11.9564 14.2339 11.7705 14.406 11.5177C14.5778 11.2656 14.7666 10.967 14.972 10.6226C15.3052 10.0454 15.602 9.42075 15.8629 8.74911C15.8851 8.69338 15.9128 8.64496 15.9461 8.60334C15.9795 8.56149 16.0099 8.53228 16.0376 8.51574L16.071 8.49067C16.0819 8.48507 16.0958 8.47826 16.1126 8.46999C16.1294 8.46196 16.1654 8.45344 16.2209 8.44492C16.2764 8.43689 16.3318 8.43543 16.3876 8.44103L18.7855 8.424C19.0019 8.3965 19.1795 8.40331 19.3182 8.44468C19.4569 8.48629 19.5431 8.53228 19.5764 8.58217L19.6265 8.6654C19.7541 9.02093 19.3379 9.83639 18.3777 11.1132C18.2443 11.2911 18.0638 11.5272 17.8365 11.8211C17.4036 12.3765 17.1539 12.74 17.0877 12.9126C16.9928 13.1396 17.0317 13.3645 17.2038 13.5861Z" fill="#E04E39"/>
<path d="M17.2038 13.5862C17.2982 13.703 17.5228 13.9306 17.8781 14.2693H17.8864L17.8946 14.2773L17.9029 14.2859L17.9197 14.3024C18.7023 15.0295 19.2323 15.643 19.51 16.1426C19.5268 16.1701 19.5448 16.2051 19.5642 16.2468C19.5835 16.2884 19.6029 16.3619 19.6224 16.4672C19.6416 16.5731 19.6402 16.667 19.6183 16.7502C19.5961 16.8332 19.5268 16.9101 19.4102 16.9792C19.2936 17.0488 19.1299 17.0834 18.9189 17.0834L16.7874 17.117C16.6543 17.1447 16.4988 17.1308 16.3211 17.0754C16.1433 17.0196 15.9992 16.9585 15.8882 16.8921L15.7215 16.7919C15.5548 16.6753 15.3606 16.4976 15.1387 16.2592C14.9165 16.0204 14.7265 15.8053 14.5683 15.6138C14.4101 15.4223 14.2408 15.2617 14.0602 15.1308C13.8796 15.0003 13.7229 14.9573 13.5898 15.0018C13.5732 15.0076 13.5509 15.0174 13.5231 15.031C13.4951 15.0449 13.4482 15.0848 13.3815 15.1517C13.3148 15.2184 13.2552 15.3004 13.2024 15.3972C13.1496 15.4946 13.1024 15.6389 13.0608 15.8304C13.0191 16.0217 13.0009 16.237 13.0067 16.4757C13.0067 16.5587 12.9968 16.6354 12.9775 16.7047C12.9581 16.7741 12.9371 16.8254 12.915 16.8585L12.8817 16.9001C12.7816 17.006 12.6347 17.0668 12.4405 17.0834H11.4829C11.0887 17.1058 10.6835 17.06 10.2674 16.9461C9.85123 16.832 9.48597 16.6853 9.17253 16.5047C8.85861 16.3246 8.57292 16.1414 8.31497 15.9555C8.05678 15.7693 7.86113 15.6099 7.72802 15.4768L7.51995 15.2768C7.46447 15.2215 7.38806 15.1381 7.29096 15.0268C7.19387 14.9159 6.99554 14.6635 6.69573 14.2693C6.39593 13.8751 6.10172 13.4563 5.81311 13.0119C5.5245 12.5678 5.18454 11.9821 4.79299 11.2549C4.40169 10.5281 4.03959 9.7732 3.70644 8.99035C3.6731 8.90177 3.65631 8.82682 3.65631 8.76573C3.65631 8.7049 3.66459 8.66037 3.68138 8.63238L3.71471 8.58249C3.79794 8.47688 3.95612 8.42407 4.18924 8.42407L6.47064 8.40753C6.53731 8.41872 6.60107 8.43673 6.66215 8.46179C6.72323 8.48661 6.76776 8.51022 6.79551 8.53236L6.83712 8.55743C6.92594 8.61875 6.99238 8.70733 7.03691 8.82389C7.14788 9.1018 7.27563 9.38895 7.41994 9.68584C7.56424 9.98272 7.67813 10.209 7.76136 10.3643L7.89447 10.6059C8.05532 10.9388 8.21082 11.2277 8.36072 11.4718C8.51087 11.7161 8.6452 11.9064 8.76468 12.0422C8.88392 12.1782 8.99903 12.2853 9.11024 12.3627C9.2212 12.4405 9.31562 12.4795 9.3935 12.4795C9.47112 12.4795 9.54607 12.4656 9.61835 12.4379C9.6293 12.4323 9.64317 12.4184 9.65996 12.3963C9.67675 12.3741 9.70985 12.313 9.75998 12.2128C9.80986 12.113 9.84734 11.9826 9.8724 11.8215C9.89747 11.6609 9.92375 11.436 9.95149 11.1474C9.97923 10.8585 9.97923 10.5118 9.95149 10.1066C9.9403 9.88441 9.91523 9.68194 9.87654 9.4987C9.83761 9.3157 9.79867 9.18794 9.75998 9.11567L9.70985 9.0159C9.57114 8.8273 9.33533 8.70782 9.00219 8.65769C8.92991 8.64698 8.94379 8.5803 9.0438 8.45814C9.13822 8.35253 9.24359 8.26955 9.36016 8.20822C9.65437 8.06416 10.3177 7.99748 11.3503 8.00819C11.8053 8.01403 12.1801 8.0498 12.4743 8.11648C12.5853 8.14447 12.6782 8.1817 12.7532 8.22891C12.8281 8.27587 12.8851 8.34279 12.924 8.42845C12.9627 8.5146 12.9919 8.60342 13.0114 8.69492C13.0308 8.78666 13.0406 8.9132 13.0406 9.07381C13.0406 9.23491 13.0379 9.38773 13.0323 9.5318C13.0267 9.6761 13.0199 9.872 13.0116 10.1188C13.0033 10.3658 12.9989 10.595 12.9989 10.8057C12.9989 10.867 12.9963 10.9834 12.9907 11.1554C12.9851 11.3277 12.9834 11.4608 12.9865 11.555C12.9892 11.6494 12.9989 11.7621 13.0155 11.8923C13.0323 12.0227 13.0642 12.1312 13.1114 12.2169C13.1583 12.303 13.2209 12.3709 13.2987 12.4208C13.343 12.4323 13.3903 12.4432 13.4404 12.4544C13.4903 12.4654 13.5623 12.4352 13.6567 12.3627C13.7509 12.2906 13.8565 12.1948 13.9731 12.0755C14.0896 11.9565 14.2339 11.7706 14.406 11.5178C14.5778 11.2657 14.7666 10.9671 14.972 10.6227C15.3052 10.0455 15.602 9.42083 15.8629 8.74919C15.8851 8.69346 15.9128 8.64503 15.9461 8.60342C15.9795 8.56157 16.0099 8.53236 16.0376 8.51582L16.071 8.49075C16.0819 8.48515 16.0958 8.47834 16.1126 8.47007C16.1294 8.46204 16.1654 8.45352 16.2209 8.445C16.2764 8.43697 16.3318 8.43551 16.3876 8.44111L18.7855 8.42407C19.0019 8.39658 19.1795 8.40339 19.3182 8.44476C19.4569 8.48637 19.5431 8.53236 19.5764 8.58225L19.6265 8.66548C19.7541 9.02101 19.3379 9.83647 18.3777 11.1133C18.2443 11.2912 18.0638 11.5273 17.8365 11.8212C17.4036 12.3765 17.1539 12.7401 17.0877 12.9126C16.9928 13.1397 17.0317 13.3645 17.2038 13.5862Z" fill="white"/>
<path d="M17.2038 13.5862C17.2982 13.703 17.5228 13.9306 17.8781 14.2693H17.8864L17.8946 14.2773L17.9029 14.2859L17.9197 14.3024C18.7023 15.0295 19.2323 15.643 19.51 16.1426C19.5268 16.1701 19.5448 16.2051 19.5642 16.2468C19.5835 16.2884 19.6029 16.3619 19.6224 16.4672C19.6416 16.5731 19.6402 16.667 19.6183 16.7502C19.5961 16.8332 19.5268 16.9101 19.4102 16.9792C19.2936 17.0488 19.1299 17.0834 18.9189 17.0834L16.7874 17.117C16.6543 17.1447 16.4988 17.1308 16.3211 17.0754C16.1433 17.0196 15.9992 16.9585 15.8882 16.8921L15.7215 16.7919C15.5548 16.6753 15.3606 16.4976 15.1387 16.2592C14.9165 16.0204 14.7265 15.8053 14.5683 15.6138C14.4101 15.4223 14.2408 15.2617 14.0602 15.1308C13.8796 15.0003 13.7229 14.9573 13.5898 15.0018C13.5732 15.0076 13.5509 15.0174 13.5231 15.031C13.4951 15.0449 13.4482 15.0848 13.3815 15.1517C13.3148 15.2184 13.2552 15.3004 13.2024 15.3972C13.1496 15.4946 13.1024 15.6389 13.0608 15.8304C13.0191 16.0217 13.0009 16.237 13.0067 16.4757C13.0067 16.5587 12.9968 16.6354 12.9775 16.7047C12.9581 16.7741 12.9371 16.8254 12.915 16.8585L12.8817 16.9001C12.7816 17.006 12.6347 17.0668 12.4405 17.0834H11.4829C11.0887 17.1058 10.6835 17.06 10.2674 16.9461C9.85123 16.832 9.48597 16.6853 9.17253 16.5047C8.85861 16.3246 8.57292 16.1414 8.31497 15.9555C8.05678 15.7693 7.86113 15.6099 7.72802 15.4768L7.51995 15.2768C7.46447 15.2215 7.38806 15.1381 7.29096 15.0268C7.19387 14.9159 6.99554 14.6635 6.69573 14.2693C6.39593 13.8751 6.10172 13.4563 5.81311 13.0119C5.5245 12.5678 5.18454 11.9821 4.79299 11.2549C4.40169 10.5281 4.03959 9.7732 3.70644 8.99035C3.6731 8.90177 3.65631 8.82682 3.65631 8.76573C3.65631 8.7049 3.66459 8.66037 3.68138 8.63238L3.71471 8.58249C3.79794 8.47688 3.95612 8.42407 4.18924 8.42407L6.47064 8.40753C6.53731 8.41872 6.60107 8.43673 6.66215 8.46179C6.72323 8.48661 6.76776 8.51022 6.79551 8.53236L6.83712 8.55743C6.92594 8.61875 6.99238 8.70733 7.03691 8.82389C7.14788 9.1018 7.27563 9.38895 7.41994 9.68584C7.56424 9.98272 7.67813 10.209 7.76136 10.3643L7.89447 10.6059C8.05532 10.9388 8.21082 11.2277 8.36072 11.4718C8.51087 11.7161 8.6452 11.9064 8.76468 12.0422C8.88392 12.1782 8.99903 12.2853 9.11024 12.3627C9.2212 12.4405 9.31562 12.4795 9.3935 12.4795C9.47112 12.4795 9.54607 12.4656 9.61835 12.4379C9.6293 12.4323 9.64317 12.4184 9.65996 12.3963C9.67675 12.3741 9.70985 12.313 9.75998 12.2128C9.80986 12.113 9.84734 11.9826 9.8724 11.8215C9.89747 11.6609 9.92375 11.436 9.95149 11.1474C9.97923 10.8585 9.97923 10.5118 9.95149 10.1066C9.9403 9.88441 9.91523 9.68194 9.87654 9.4987C9.83761 9.3157 9.79867 9.18794 9.75998 9.11567L9.70985 9.0159C9.57114 8.8273 9.33533 8.70782 9.00219 8.65769C8.92991 8.64698 8.94379 8.5803 9.0438 8.45814C9.13822 8.35253 9.24359 8.26955 9.36016 8.20822C9.65437 8.06416 10.3177 7.99748 11.3503 8.00819C11.8053 8.01403 12.1801 8.0498 12.4743 8.11648C12.5853 8.14447 12.6782 8.1817 12.7532 8.22891C12.8281 8.27587 12.8851 8.34279 12.924 8.42845C12.9627 8.5146 12.9919 8.60342 13.0114 8.69492C13.0308 8.78666 13.0406 8.9132 13.0406 9.07381C13.0406 9.23491 13.0379 9.38773 13.0323 9.5318C13.0267 9.6761 13.0199 9.872 13.0116 10.1188C13.0033 10.3658 12.9989 10.595 12.9989 10.8057C12.9989 10.867 12.9963 10.9834 12.9907 11.1554C12.9851 11.3277 12.9834 11.4608 12.9865 11.555C12.9892 11.6494 12.9989 11.7621 13.0155 11.8923C13.0323 12.0227 13.0642 12.1312 13.1114 12.2169C13.1583 12.303 13.2209 12.3709 13.2987 12.4208C13.343 12.4323 13.3903 12.4432 13.4404 12.4544C13.4903 12.4654 13.5623 12.4352 13.6567 12.3627C13.7509 12.2906 13.8565 12.1948 13.9731 12.0755C14.0896 11.9565 14.2339 11.7706 14.406 11.5178C14.5778 11.2657 14.7666 10.9671 14.972 10.6227C15.3052 10.0455 15.602 9.42083 15.8629 8.74919C15.8851 8.69346 15.9128 8.64503 15.9461 8.60342C15.9795 8.56157 16.0099 8.53236 16.0376 8.51582L16.071 8.49075C16.0819 8.48515 16.0958 8.47834 16.1126 8.47007C16.1294 8.46204 16.1654 8.45352 16.2209 8.445C16.2764 8.43697 16.3318 8.43551 16.3876 8.44111L18.7855 8.42407C19.0019 8.39658 19.1795 8.40339 19.3182 8.44476C19.4569 8.48637 19.5431 8.53236 19.5764 8.58225L19.6265 8.66548C19.7541 9.02101 19.3379 9.83647 18.3777 11.1133C18.2443 11.2912 18.0638 11.5273 17.8365 11.8212C17.4036 12.3765 17.1539 12.7401 17.0877 12.9126C16.9928 13.1397 17.0317 13.3645 17.2038 13.5862Z" fill="white"/>
</g>
<defs>
<clipPath id="clip0_27_988">
<rect width="24" height="24" fill="white"/>
</clipPath>
</defs>
</svg>
